<?xml version="1.0" encoding="utf-8"?>
<!-- Generator: Adobe Illustrator 16.0.0, SVG Export Plug-In . SVG Version: 6.00 Build 0)  -->
<!DOCTYPE svg PUBLIC "-//W3C//DTD SVG 1.1//EN" "http://www.w3.org/Graphics/SVG/1.1/DTD/svg11.dtd">
<svg version="1.1" id="Layer_1" xmlns="http://www.w3.org/2000/svg" xmlns:xlink="http://www.w3.org/1999/xlink" x="0px" y="0px"
	 width="1358.099px" height="1201.898px" viewBox="220.951 190.527 1358.099 1201.898"
	 enable-background="new 220.951 190.527 1358.099 1201.898" xml:space="preserve">
<g>
	<path fill="#FFFFFF" d="M1423.061,992.99c12.358-45.438,18.973-93.244,18.973-142.597c0-262.831-187.078-481.961-435.338-531.521
		v20.376c32.97,6.846,65.209,16.897,96.497,30.131c62.161,26.292,117.99,63.936,165.939,111.884
		c47.949,47.949,85.593,103.779,111.886,165.939c27.216,64.346,41.016,132.709,41.016,203.19c0,48.758-6.625,96.495-19.706,142.597
		c-15.821,0-31.644,0-47.464,0v-47.641l-3.485-1.106c-6.712-2.134-13.627-4.249-20.694-6.337v-32.279l-3.144-1.258
		c-0.129-0.051-2.713-1.082-7.66-2.877v-17.519l-3.143-1.257c-0.425-0.17-43.276-17.168-116.024-33.892
		c-42.18-9.697-100.187-20.563-169.563-27.292V715.206l-3.27-1.207c-0.754-0.278-8.307-3.014-21.893-6.232v-10.223l-2.643-0.975
		c-0.361-0.134-2.691-0.976-6.812-2.179l-2.953-5.607l-1.101-0.296c-2.806-0.755-6.197-1.607-10.149-2.492
		c0.004-0.076,0.006-0.152,0.01-0.229c0.155-3.065-3.825-4.582-6.854-6.51c-3.03-1.925-7.023-5.663-8.867-9.189
		c-1.844-3.527-2.34-5.712-0.608-7.664c2.812-3.169-1.301-2.779-0.817-4.49c0.764-2.717-0.781-2.629-2.099-11.451
		c-0.917-6.135,0.851-20.437,2.014-32.225c0.385-0.044,0.771-0.104,1.155-0.149c0.556-0.068,1.107-0.149,1.656-0.317
		c0.547-0.164,1.105-0.249,1.644-0.485c0.539-0.222,1.086-0.391,1.613-0.695c0.269-0.146,0.529-0.26,0.801-0.438
		c0.279-0.19,0.501-0.306,0.865-0.61l1.018-0.854l-0.623-1.477c-0.038-0.09-0.163-0.416-0.239-0.651
		c-0.069-0.274-0.161-0.535-0.207-0.823c-0.121-0.546-0.198-1.175-0.217-1.703c0.001-0.291-0.044-0.491-0.019-0.854l0.051-1.029
		l0.122-0.825c0.047-0.303,0.075-0.595,0.157-0.917c0.529-2.514,1.375-5.114,2.198-7.716c0.828-2.595,1.705-5.261,2.509-7.878
		l0.308-0.984l0.278-1.09l0.55-2.174c0.129-0.736,0.229-1.479,0.344-2.221c0.051-0.371,0.118-0.742,0.154-1.114l0.065-1.117
		c0.479-6.011-0.941-11.777-1.236-16.779l-0.059-0.92l0.004-0.977l0.004-1.949l0.16-4l0.519-8.153
		c0.372-5.456,0.776-11.066,0.985-16.527c0.135-5.568,0.206-11.046,0.265-16.574c0.062-5.518,0.07-11.035,0.07-16.554l-0.078-16.548
		l-0.344-16.484l-0.454-16.483l-0.479-16.409c-0.127-5.352-0.049-10.816,0.142-16.263l0.146-4.089l0.2-4.084
		c0.052-1.365,0.116-2.726,0.207-4.078c0.088-1.333,0.15-2.766,0.258-4.019l0.153-1.878c0.06-0.635,0.068-1.236,0.206-1.938
		c0.117-0.687,0.203-1.343,0.347-2.055c0.232-1.129,0.157-2.013,0.081-2.867c-0.438-3.282-1.521-5.863-2.543-8.492l-1.583-3.837
		l-0.771-1.885c-0.274-0.634-0.38-1.185-0.586-1.784c-0.086-0.299-0.196-0.579-0.268-0.895l-0.19-0.964l-0.384-1.939
		c-0.12-0.903-0.26-1.804-0.383-2.711c1.02,0.431,2.25,0.908,3.524,1.355c2.978,1.097,5.386,1.847,6.13,2.021
		c0.41,0.095,0.921-0.069,1.486-0.404c0.002,0,0.004,0,0.005-0.001c2.007-0.509,6.173-5.931,6.989-7.566
		c0.875-1.166,0.681-3.461,0.231-5.823c-0.001-0.002-0.001-0.003-0.001-0.005c-0.38-3.176-1.559-7.355-1.251-9.807
		c0.306-2.453-0.569-3.727-2.131-6.643c-1.558-2.916-0.424-5.417-0.027-7.005c0.396-1.587-3.36-4.133-3.666-5.36
		c-0.308-1.227-2.529-2.229-3.296-2.679c-0.765-0.449-4.27-6.109-7.231-12.344c-2.963-6.235-9.201-17.636-10.117-22.79
		c-0.084-0.472-0.174-0.954-0.263-1.434c0.348,0.029,0.693,0.005,1.05-0.134c0.199-0.072,0.438-0.198,0.56-0.293
		c0.127-0.095,0.248-0.203,0.358-0.318c0.399-0.421,0.576-0.96,0.55-0.917l0.021-0.069l0.058-0.158l0.002-0.011l0.008-0.045
		l0.01-0.102l0.068-0.172c0.207-0.47,0.561-1.04,0.917-1.561c1.484-2.099,2.898-3.78,3.731-5.129
		c0.217-0.329,0.397-0.655,0.549-0.95c0.072-0.125,0.15-0.305,0.219-0.477c0.063-0.167,0.119-0.318,0.17-0.453
		c0.115-0.416,0.135-0.561,0.144-0.573l0.133-0.23l-0.107,0.095c-0.017,0.015,0.073-0.376-0.019-0.984
		c-0.079-0.638-0.401-1.345-0.853-2.048c-0.87-1.411-2.379-2.952-3.512-5.051c-0.144-0.276-0.214-0.465-0.344-0.759
		c-0.063-0.165-0.128-0.331-0.193-0.499c-0.006-0.019-0.055-0.136-0.025-0.075l-0.09-0.187l-0.188-0.375
		c-0.241-0.546-0.574-0.903-0.903-1.35c-0.341-0.354-0.704-0.755-1.084-1.057c-1.513-1.285-3.228-2.251-5.092-3.128
		c-1.872-0.863-3.9-1.594-6.119-2.195c-1.118-0.29-2.236-0.543-3.572-0.726c-0.544-0.075-1.094-0.15-1.648-0.227
		c-0.172-0.039-0.362-0.056-0.518-0.102c-0.146-0.052-0.293-0.098-0.438-0.138c-0.54-0.214-0.75-0.411-1.069-0.749
		c-0.33-0.321-0.786-0.967-1.554-2.026c-0.388-0.524-0.793-1.112-1.455-1.829l-0.567-0.587c-0.179-0.177-0.25-0.231-0.381-0.353
		l-0.176-0.159l-0.044-0.04c-0.325-0.283-0.135-0.111-0.227-0.188l-0.155-0.112l-0.628-0.44c-0.415-0.275-0.871-0.605-1.281-0.793
		l-1.233-0.553c-0.428-0.2-0.809-0.323-1.187-0.44c-0.381-0.126-0.771-0.235-1.155-0.35c-0.72-0.174-1.447-0.345-2.139-0.487
		c-0.656-0.118-1.316-0.236-1.98-0.355c-0.583-0.1-1.169-0.199-1.758-0.3l-0.781-0.124l-0.997-0.271l-0.502-0.136l-0.125-0.034
		c-0.168-0.066,0.16,0.073,0.089,0.046l-0.098-0.03l-0.389-0.114l-0.778-0.21c-0.245-0.052-0.463-0.077-0.693-0.114
		c-0.465-0.077-0.913-0.13-1.322-0.144c-0.421-0.025-0.85-0.058-1.243-0.048c-1.619-0.024-3.131,0.127-4.638,0.303
		c-1.188,0.139-2.36,0.316-3.53,0.507c-0.028-0.762-0.08-1.35-0.137-1.6c-0.268-1.188,0.239-2.444,0.92-3.028
		c1.011-0.87-0.617-3.801,0.1-5.191c0.428-0.833,3.582-1.15,5.385-2.17c1.5-0.849,1.19-2.147,0.692-3.372
		c-0.499-1.229-3.255-5.221-3.768-7.06c-0.512-1.841,1.177-4.548,1.729-5.632c0.551-1.082-0.336-2.89-0.803-5.314
		c-0.466-2.427-1.228-8.83-2.02-10.401c-0.493-0.978-0.261-5.275-1.563-7.497c-1.303-2.224-4.545-3.757-11.234-4.822
		c-6.688-1.067-22.895,0.221-28.492,5.282c-5.594,5.057-3.602,13.641-5.135,17.858c-1.531,4.216-1.013,10.103,0.57,14.486
		c1.584,4.386,1.268,7.665,0.273,11.267c-0.998,3.602,0.92,7.052,2.836,7.206v9.81c0,0-1.89-0.129-3.372,0
		c-1.485,0.132-6.489,5.674-12.553,9.349c-6.062,3.677-30.223,10.931-31.631,11.584c-1.405,0.657-6.185,11.885-8.053,17.354
		c-1.871,5.464-3.207,17.038-4.555,24.92c-0.569,3.324-1.364,9.169-2.123,14.942c-0.725-7.372-1.963-19.887-1.829-24.128
		c0.175-5.537,0.745-10.2-1.862-12.5c-2.606-2.302-7.309,1.276-9.25,5.57c-1.942,4.291,0.81,13.043,1.676,18.345
		c1.066,6.496,3.34,22.036,3.603,26.433c0.123,2.032,0.259,4.188,0.808,5.927c-0.273,0.262-0.503,0.56-0.649,0.919
		c-0.92,2.248,1.672,3.831-0.087,7.38c-1.809,3.647,1.968,6.168,1.968,6.168s-1.941,15.024-1.908,27.802
		c0.032,12.78,1.164,49.252,1.313,54.98c0.146,5.731-2.388,22.901-3.061,27.552c-0.672,4.649,1.715,4.535,2.021,7.808
		c0.309,3.271,2.065,4.773,3.323,7.356c0.752,1.546,3.077,2.265,5.501,2.55c0,8.573,0,19.403,0,19.403l-8.428,10.969
		c0,0-1.101,7.701-1.101,16.108c0,8.409,1.717,17.714,1.717,17.714l18.284-23.083v-24.019h-3.146c0,0-0.036-9.93-0.033-17.896
		c2.402-1.328,4.726-3.805,5.778-5.443c1.457-2.268,0.688-4.173,0.279-7.236c-0.407-3.066-0.716-13.082-0.513-16.762
		c0.206-3.679-2.926-6.005-4.291-8.38s-1.737-6.746-1.532-12.979c0.206-6.233,3.216-21.32,5.038-28.124
		c1.826-6.803,5.648-17.919,7-24.203c1.352-6.287,0.53-16.657,0.53-16.657s2.751-0.877,4.081-1.386
		c1.328-0.511,2.146-2.762,2.146-4.805s0.92-3.271,1.534-5.019c0.611-1.746-4.184-4.834-3.522-8.581
		c0.657-3.744,3.325-15.468,4.451-15.57c1.125-0.102,4.394,5.417,6.144,9.83c1.753,4.409,5.792,14.005,7.038,19.91
		c1.251,5.906-3.984,11.177,0.271,15.264c0.393,0.376,1.678,0.426,3.616,0.267c-0.313,2.577-1.622,13.378-2.158,17.684
		c-0.612,4.906-6.53,30.966-8.983,46.604c-2.452,15.634-5.521,71.281-9.451,83.966c-3.932,12.682-3.108,21.489-6.121,27.313
		c-4.411,8.532,2.492,10.54,2.492,10.54s-0.871,12.007-2.402,24.269c-1.534,12.264,0.124,32.329,0.304,41.366
		c0.184,9.036-0.637,23.766-2.217,30.195c-1.577,6.425-11.332,13.832-13.264,16.035c-0.642,0.732-0.835,1.579-0.796,2.427
		c-3.82,0.866-7.164,1.698-9.969,2.44l-1.09,0.29l-3.04,5.618c-3.874,1.106-6.091,1.863-6.462,1.992l-2.716,0.941v10.581
		c-13.348,3.157-21.003,5.771-21.802,6.047l-3.36,1.166v105.167c-71.604,6.683-131.396,17.84-174.592,27.77
		c-72.748,16.724-115.602,33.722-116.025,33.893l-3.144,1.257v17.517c-4.947,1.796-7.531,2.827-7.659,2.879l-3.144,1.257v32.28
		c-5.305,1.568-10.531,3.149-15.641,4.745l-3.51,1.096v49.242c-15.82,0-31.642,0-47.462,0
		c-13.08-46.101-19.705-93.839-19.705-142.596c0-70.482,13.8-138.847,41.016-203.191c26.292-62.161,63.936-117.991,111.885-165.938
		c47.948-47.949,103.779-85.592,165.939-111.884c28.1-11.885,56.966-21.211,86.438-27.947v-20.458
		C540.01,374.373,357.968,591.123,357.968,850.395c0,49.353,6.613,97.158,18.973,142.597c-51.997,0-103.993,0-155.989,0
		c0,115.844,0,231.688,0,347.53c123.863-19.617,248.365-33.821,373.152-42.638c87.065,59.634,192.398,94.542,305.896,94.542
		c113.499,0,218.831-34.91,305.898-94.542c124.786,8.815,249.289,23.021,373.151,42.638c0-115.844,0-231.688,0-347.53
		C1527.053,992.99,1475.057,992.99,1423.061,992.99z M1344.862,952.672v40.318c-13.994,0-27.988,0-41.982,0v-52.576
		C1317.444,944.375,1331.524,948.486,1344.862,952.672z M970.538,364.612c0,0.083-0.004,0.167-0.004,0.25
		c-0.02,1.395,0.087,2.806,0.126,4.215c0.046,0.709,0.142,1.425,0.215,2.139l0.117,1.073c0.048,0.361,0.146,0.738,0.22,1.107
		c0.169,0.722,0.297,1.535,0.514,2.187l0.617,1.997l1.222,3.916c0.389,1.292,0.758,2.577,1.052,3.838
		c0.292,1.252,0.537,2.504,0.582,3.581c0.012,0.511-0.018,1.021-0.11,1.232c-0.172,0.625-0.319,1.325-0.479,1.983
		c-0.174,0.639-0.274,1.411-0.399,2.138l-0.357,2.212c-0.803,5.614-1.443,11.052-1.887,16.597
		c-0.488,5.526-0.867,11.05-1.035,16.689l-0.119,16.569l-0.095,16.495l0.017,16.492l-0.102,16.431
		c-0.013,5.477-0.015,10.951,0.034,16.427c0.042,5.464,0.11,10.98,0.221,16.405l-0.119,16.434c-0.03,2.754-0.061,5.53-0.021,8.327
		l0.131,4.245l0.146,2.17l0.075,1.083l0.148,1.131c0.106,0.753,0.187,1.505,0.324,2.256l0.4,2.022
		c0.271,1.347,0.572,2.733,0.808,4.016c0.49,2.611,0.876,5.145,0.852,7.649l0.016,0.943c-0.007,0.313-0.045,0.622-0.064,0.934
		l-0.148,1.873l-0.332,1.854l-0.17,0.921l-0.246,1.001c-0.648,2.684-1.335,5.288-2.017,7.979c-0.681,2.683-1.358,5.373-1.837,8.267
		c-0.072,0.348-0.104,0.741-0.146,1.12l-0.061,0.571l-0.029,0.285l-0.015,0.143l-0.006,0.223l-0.01,1.03
		c-0.013,0.323,0.042,0.81,0.064,1.204c0.021,0.427,0.088,0.813,0.153,1.201c0.054,0.391,0.145,0.778,0.245,1.166
		c0.055,0.253,0.135,0.507,0.217,0.76c-0.311,0.174-0.659,0.309-0.99,0.466c-0.386,0.2-0.845,0.276-1.264,0.427
		c-0.42,0.155-0.87,0.234-1.323,0.308c-0.073,0.011-0.145,0.027-0.217,0.04c0.333-3.718,0.563-7.037,0.563-9.548
		c0-10.833-3.348-30.964-1.991-32.348c3.22-3.284,2.516-6.279,1.136-9.188c-1.38-2.916-3.588-17.025-4.815-24.077
		c-1.227-7.052-3.22-28.514-3.524-41.237c-0.308-12.725-9.75-63.464-11.282-75.729c-1.127-9.018-2.501-22.003-3.15-28.252
		c0.492,0.299,1.013,0.636,1.562,1.002c0.546,0.358,1.056,0.713,1.774,1.144l0.259,0.156l0.33,0.179
		c0.271,0.131,0.286,0.183,0.954,0.448c0.498,0.203,1.269,0.367,1.246,0.343l0.116,0.017l0.058,0.008
		c-0.138-0.005,1.206,0.09,0.778,0.042c0.371-0.022,0.748-0.079,1.107-0.166c0.403-0.107,0.905-0.332,1.309-0.582
		c0.407-0.25,0.773-0.609,1.092-0.983c0.173-0.203,0.274-0.365,0.367-0.526c0.097-0.167,0.188-0.339,0.268-0.514
		c0.185-0.393,0.229-0.611,0.3-0.881c0.244-1.089,0.155-1.645,0.12-2.224c-0.125-1.053-0.344-1.798-0.564-2.518
		c-0.225-0.71-0.463-1.374-0.713-2.001l-0.679-1.662c-0.169-0.336-0.224-0.778-0.076-1.446c0.162-0.651,0.526-1.456,1.015-2.154
		l0.17-0.238c0.027-0.04,0.047-0.081,0.175-0.221c-0.053,0.061,0.37-0.404,0.564-0.735c0.218-0.352,0.34-0.688,0.454-1.054
		c0.082-0.314,0.115-0.578,0.144-0.872c0.016-0.251,0.004-0.433-0.005-0.652c-0.064-0.737-0.21-1.222-0.335-1.608
		c-0.13-0.409-0.261-0.737-0.39-1.055c-0.517-1.243-1.012-2.274-1.465-3.32c-0.197-0.479-0.521-1.114-0.604-1.513
		c-0.141-0.449-0.28-0.896-0.42-1.341c-0.239-1.078-0.476-2.146-0.71-3.202c-0.401-2.188-0.81-4.338-1.152-6.46
		c-0.722-4.228-1.301-8.271-1.822-11.988c-0.226-1.653-0.435-3.242-0.619-4.787l0.145-0.255l4.693,4.13
		c1.009,1.585,2.188,3.612,4.25,6.575c2.092,3.831,3.964,7.589,5.643,9.687C963.223,360.906,966.748,362.889,970.538,364.612z
		 M938.289,380.651l-0.059,0.006l-0.234,0.024l-0.234,0.025c-0.076,0.008-0.191,0.025-0.108-0.008
		c0.07-0.039,0.147-0.06,0.225-0.063c0.028-0.004,0.096,0.007,0.091,0.001l-0.066-0.031c-0.045-0.019-0.091-0.034-0.136-0.045
		c-0.108-0.042-0.251-0.117-0.376-0.158c-0.57-0.272-1.265-0.743-1.802-1.269c-0.255-0.237-0.477-0.509-0.641-0.747l0.215-0.682
		c0.187-0.498,0.366-1.383,0.516-2.154c0.149-0.774,0.314-1.645,0.379-2.226c0.396-2.604,0.563-5.097,0.697-7.54
		c0.077-2.445,0.109-4.831,0.045-7.167c-0.1-2.334-0.217-4.613-0.444-6.831c-0.178-2.241-0.459-4.289-0.662-6.282
		c-0.236-2.005-0.466-3.943-0.686-5.803c-0.438-3.727-0.881-7.149-1.29-10.176c-0.086-0.629-0.166-1.232-0.244-1.828
		c2.245,1.843,6.164,4.781,9.868,7.396c0.072,0.382,0.147,0.756,0.227,1.147c0.085,0.766,0.138,1.454,0.187,2.307
		c0.029,1.715,0.088,3.536,0.157,5.443c0.153,3.796,0.329,7.892,0.633,12.248c0.123,2.175,0.345,4.421,0.574,6.726
		c0.158,1.178,0.292,2.339,0.479,3.572c0.151,0.676,0.305,1.355,0.456,2.037c0.154,0.75,0.353,1.179,0.55,1.81
		c0.392,1.155,0.823,2.313,1.14,3.316c0.003,0.008,0.005,0.016,0.007,0.024l-0.043,0.049c-1.007,1.209-1.857,2.567-2.437,4.257
		c-0.271,0.854-0.479,1.774-0.518,2.777c-0.01,0.407,0.008,0.825,0.046,1.245c-0.239-0.136-0.484-0.271-0.763-0.399l-0.603-0.285
		l-0.688-0.261c-0.429-0.178-1.009-0.308-1.548-0.426c-0.253-0.068-0.61-0.084-0.919-0.113c-0.33-0.015-0.618-0.057-0.983-0.023
		c-0.357,0.029-0.719,0.072-1.075,0.13l-0.267,0.045C937.807,380.752,938.686,380.573,938.289,380.651z M934.672,377.827
		c0.009-0.01,0.013-0.015,0.009-0.019c0.004,0.002,0.06,0.066,0.068,0.104c-0.001,0.024,0.036,0.129,0.061,0.253
		C934.722,378.011,934.66,377.88,934.672,377.827z M934.795,378.877c0,0,0,0.001,0,0.002c-0.017,0.077-0.04,0.152-0.069,0.224
		L934.795,378.877z M946.372,388.382c-0.007,0.023-0.012,0.046-0.014,0.02c-0.005-0.063-0.005-0.088,0.007-0.17
		C946.369,388.289,946.373,388.345,946.372,388.382z M947.927,374.39c0.038,0.163,0.023,0.25,0.006,0.123
		C947.926,374.468,947.926,374.433,947.927,374.39z M914.099,255.877c0.887-0.307,1.367-1.974,1.611-3.898
		c1.271,0.069,2.528,0.173,3.747,0.32c1.349,0.17,2.676,0.389,3.845,0.69c0.309,0.063,0.567,0.158,0.837,0.241
		c0.283,0.077,0.517,0.174,0.725,0.271c0.104,0.047,0.229,0.09,0.314,0.138l0.198,0.141l0.099,0.062l0.024,0.014
		c-0.031-0.013,0.337,0.143,0.21,0.092l0.116,0.059l0.462,0.235l0.921,0.469l1.176,0.47c0.841,0.328,1.474,0.546,2.152,0.776
		c0.639,0.211,1.271,0.42,1.903,0.628c0.561,0.192,1.117,0.382,1.672,0.572c0.231,0.099,0.461,0.203,0.693,0.289
		c0.241,0.087,0.473,0.176,0.618,0.275c0.171,0.094,0.342,0.183,0.515,0.267c0.17,0.087,0.204,0.18,0.325,0.244
		c0.052,0.035,0.104,0.067,0.158,0.097l0.041,0.022l0.087,0.082c0.1,0.095,0.27,0.245,0.308,0.295
		c0.021,0.038,0.047,0.071,0.073,0.102c0.177,0.214,0.528,0.614,0.875,1.079c0.348,0.444,0.781,1.039,1.289,1.613
		c0.553,0.603,1.139,1.234,1.911,1.829c1.493,1.208,3.477,2.003,5.181,2.227c0.419,0.037,0.834,0.074,1.248,0.11
		c0.406,0.023,0.78,0.001,1.167-0.002l0.286-0.007l0.144-0.005c0.104,0-0.063-0.003-0.028-0.005l0.053-0.004l0.417-0.035
		l0.797-0.065c0.849-0.058,1.861-0.122,2.804-0.106c1.906-0.02,3.752,0.108,5.417,0.381c1.664,0.262,3.181,0.681,4.303,1.247
		c0.293,0.139,0.491,0.3,0.736,0.442c0.152,0.15,0.402,0.298,0.479,0.428l0.089,0.099l0.049,0.049l0.096,0.167
		c0.092,0.155,0.183,0.309,0.271,0.46c0.204,0.323,0.464,0.735,0.683,1.018c0.876,1.212,1.747,2.112,2.429,2.893
		c0.685,0.776,1.244,1.396,1.559,1.896c0.325,0.493,0.444,0.816,0.443,0.917c0.012,0.074,0.014,0.097,0.015,0.11
		c-0.023,0.093-0.062,0.23-0.114,0.389c-0.024,0.035-0.05,0.074-0.071,0.118c-0.021,0.04-0.039,0.091-0.107,0.2
		c-0.104,0.187-0.235,0.408-0.423,0.67c-0.717,1.061-2.123,2.495-4.053,4.49c-0.109,0.114-0.222,0.231-0.334,0.352
		c-0.079-0.16-0.152-0.308-0.233-0.471c-0.431-0.839-0.877-1.75-1.752-2.797c-0.464-0.513-1.006-1.114-2.104-1.611l-0.207-0.086
		l-0.104-0.042c-0.646-0.16-0.203-0.053-0.358-0.092l-0.173-0.059c-0.302-0.09-1.247-0.111-1.486-0.045
		c-0.806,0.1-1.339,0.344-1.844,0.584c-0.938,0.491-1.515,0.991-2.058,1.47c-0.523,0.479-0.972,0.951-1.396,1.424
		c-1.63,1.905-2.967,3.829-4.23,5.894c-0.625,1.028-1.229,2.081-1.815,3.153c-0.285,0.536-0.574,1.076-0.865,1.622l-0.215,0.408
		l-0.104,0.206l-0.178,0.406l-0.381,0.839c-0.459,0.885-1.171,2.871-1.499,4.41c-0.167,0.667-0.269,1.294-0.365,1.921
		c-1.351-0.43-2.855-0.743-4.286-0.945c-0.201-0.641-0.434-1.323-0.649-1.981c-0.567-1.555-1.207-3.139-2.06-4.715
		c-0.447-0.785-0.84-1.577-1.401-2.334l-0.8-1.14l-0.2-0.284l-0.211-0.263l-0.354-0.432l-1.513-1.802l-1.491-1.711
		c-3.918-4.534-8.523-8.574-12.103-13.231c-0.878-1.148-1.757-2.321-2.46-3.454c-0.206-0.294-0.313-0.552-0.476-0.83
		c-0.146-0.241-0.333-0.654-0.488-0.986c-0.384-0.823-0.761-1.494-1.166-2.196c-1.24-2.144-2.523-4.169-3.59-6.215
		C911.688,256.366,913.166,256.201,914.099,255.877z M870.051,577.474c6.188-4.899,2.759-5.978,2.604-10.574
		c-0.153-4.603,3.986-29.128,10.424-47.522c6.438-18.396,14.409-54.879,16.863-54.879c1.531,0,3.834,9.658,6.132,17.169
		c2.3,7.511,8.336,26.998,13.49,39.396c6.862,16.498,5.688,37.493,4.771,40.865c-0.92,3.375,1.992,3.375,1.226,7.053
		c-0.768,3.679,5.809,2.823,5.809,2.823s0,12.111,0.46,20.849c0.356,6.8,2.565,18.847,4.327,27.713
		c-0.111-0.033-0.215-0.06-0.339-0.107c-0.841-0.278-1.694-0.689-2.571-1.144c-1.749-0.892-3.601-2.001-5.833-2.653
		c-1.11-0.339-2.33-0.466-3.547-0.456c-0.604,0.069-1.228,0.079-1.806,0.249l-0.889,0.217l-0.729,0.229
		c-1.977,0.633-3.866,1.27-5.78,1.822c-1.907,0.549-3.817,1.03-5.713,1.327c-1.889,0.309-3.785,0.423-5.496,0.161
		c-1.718-0.25-3.159-0.899-4.091-1.974c-0.394-0.439-1.042-1.446-1.602-2.248l-1.725-2.517c-0.572-0.837-1.228-1.69-1.831-2.54
		l-0.928-1.276c-0.322-0.421-0.683-0.832-1.022-1.249c-0.693-0.828-1.355-1.68-2.168-2.433l-1.171-1.164l-1.074-1.042
		c-2.649-2.641-5.239-5.765-7.057-8.9c-0.252-0.392-0.438-0.781-0.617-1.167l-0.662-1.349l-0.672-1.37l-0.834-1.47
		c-0.566-1.018-1.129-1.892-1.69-2.781c-0.554-0.904-1.144-1.768-1.729-2.634c-1.472-2.161-2.999-4.271-4.608-6.345
		C869.998,577.527,870.024,577.495,870.051,577.474z M857.99,660.405c3.727-4.483-0.877-9.188,0.237-18.786
		c1.115-9.598,5.61-33.398,6.904-41.326c0.673-4.131,1.47-9.743,2.344-14.385c0.527,0.656,1.053,1.313,1.566,1.979
		c0.602,0.782,1.209,1.563,1.767,2.362c0.575,0.795,1.161,1.6,1.629,2.333l0.756,1.133l0.755,1.327l0.765,1.346
		c0.287,0.519,0.578,1.027,0.901,1.477c1.23,1.907,2.626,3.538,4.052,5.147c0.723,0.791,1.454,1.57,2.221,2.315
		c0.729,0.734,1.623,1.559,2.381,2.215l0.581,0.494l0.598,0.519l1.049,0.929c0.727,0.585,1.354,1.312,2.01,2.004
		c0.324,0.352,0.658,0.686,0.978,1.054l0.934,1.141c0.624,0.77,1.25,1.497,1.863,2.313l1.841,2.432
		c0.654,0.827,1.099,1.55,2.085,2.605c0.921,0.943,2.053,1.677,3.223,2.157c1.174,0.484,2.374,0.737,3.537,0.854
		c2.335,0.227,4.534-0.043,6.645-0.432c2.112-0.399,4.138-0.979,6.119-1.614c1.977-0.635,3.92-1.354,5.798-2.021l0.718-0.248
		l0.591-0.157c0.396-0.144,0.802-0.136,1.203-0.211c0.813-0.027,1.638,0.043,2.479,0.289c1.693,0.465,3.393,1.422,5.262,2.364
		c0.934,0.469,1.921,0.94,3.013,1.295c0.51,0.192,1.164,0.332,1.783,0.465l0.275,0.033c0.236,1.162,0.458,2.239,0.653,3.182
		c1.69,8.168,0.27,23.479-1.226,27.286c-2.229,5.674,2.758,4.752,1.683,9.198c-1.07,4.446-0.457,12.265-0.612,15.33
		c-0.008,0.152,0.012,0.285,0.032,0.416c-10.646-0.922-22.447-1.505-35.313-1.505c-16.03,0-30.672,0.938-43.617,2.334
		c0.81-1.994-0.876-6.655-1.274-10.75C856.712,664.545,856.089,662.692,857.99,660.405z M778.849,723.104
		c12.517-3.801,59.024-16.44,123.704-16.44c64.092,0,106.853,11.924,118.598,15.632V820.6c-38.182-3.426-79.638-5.563-123.666-5.563
		c-42.103,0-81.853,1.954-118.636,5.121V723.104L778.849,723.104z M474.285,912.447c1.771-0.666,4.277-1.591,7.476-2.727
		l3.327-1.182v-17.741c11.021-4.129,50.543-18.235,111.41-32.228c66.546-15.299,172.783-33.534,300.986-33.534
		c128.085,0,234.235,18.204,300.729,33.475c60.949,13.997,100.618,28.15,111.665,32.288v17.74l3.327,1.182
		c3.197,1.135,5.703,2.061,7.476,2.727v22.552c-7.045-2.014-14.223-3.997-21.515-5.94l-6.287-1.676v65.607
		c-19.579,0-39.157,0-58.735,0v-79.563l-3.959-0.843c-17.388-3.699-35.239-7.164-53.063-10.298l-5.866-1.031v91.735
		c-18.976,0-37.95,0-56.926,0V892.549l-4.347-0.572c-18.095-2.384-36.555-4.493-54.868-6.272l-5.483-0.533v107.82
		c-18.674,0-37.348,0-56.021,0V880.896l-4.721-0.266c-18.471-1.036-37.234-1.767-55.771-2.172l-5.109-0.112V992.99
		c-18.674,0-37.348,0-56.021,0V878.261l-5.094,0.097c-18.581,0.35-37.346,1.021-55.772,1.998l-4.735,0.25V992.99
		c-18.674,0-37.348,0-56.021,0V884.707l-5.468,0.514c-18.262,1.716-36.722,3.77-54.867,6.102l-4.363,0.561V992.99
		c-18.975,0-37.951,0-56.926,0v-92.589l-5.85,1.008c-18.078,3.116-36.237,6.581-53.971,10.301l-3.974,0.833v80.447
		c-19.277,0-38.554,0-57.831,0v-66.911l-6.269,1.644c-9.023,2.366-17.897,4.797-26.563,7.273v-22.549H474.285z M1224.145,921.528
		v71.462c-14.297,0-28.592,0-42.888,0v-79.813C1195.657,915.769,1210.042,918.569,1224.145,921.528z M1104.331,901.324v91.666
		c-14.899,0-29.799,0-44.698,0v-96.792C1074.563,897.701,1089.556,899.42,1104.331,901.324z M983.611,890.357V992.99
		c-15.2,0-30.401,0-45.603,0V888.576C953.188,888.957,968.482,889.554,983.611,890.357z M861.988,888.458V992.99
		c-15.201,0-30.401,0-45.603,0V890.097C831.486,889.342,846.782,888.792,861.988,888.458z M740.365,895.7v97.29
		c-14.899,0-29.798,0-44.697,0v-92.306C710.479,898.824,725.47,897.152,740.365,895.7z M618.742,912.284v80.706
		c-14.599,0-29.196,0-43.794,0v-72.321C589.38,917.685,604.07,914.872,618.742,912.284z M455.135,951.108
		c13.385-4.125,27.465-8.169,41.982-12.053v53.935c-13.994,0-27.988,0-41.982,0V951.108z M1103.191,1331.41
		c-64.347,27.216-132.71,41.016-203.192,41.016s-138.846-13.8-203.191-41.016c-24.148-10.215-47.325-22.17-69.473-35.751
		c181.597-11.429,363.734-11.429,545.331,0C1150.518,1309.24,1127.342,1321.195,1103.191,1331.41z M1567.884,1330.039l-4.626-0.732
		c-218.688-34.637-441.842-52.199-663.258-52.199s-444.568,17.563-663.258,52.199l-4.626,0.732v-325.883h1335.768V1330.039z"/>
	<g>
		<path fill="#FFFFFF" d="M529.757,1089.041c-0.071,17.253-0.143,34.507-0.214,51.761c18.736-0.804,22.344-6.712,22.423-25.688
			C552.046,1096.143,548.494,1088.785,529.757,1089.041z"/>
		<path fill="#FFFFFF" d="M1211.22,1087.676c0.069,16.603,0.14,33.202,0.208,49.805c8.271,0.296,22.045-0.073,21.942-24.351
			C1233.27,1088.851,1219.486,1087.775,1211.22,1087.676z"/>
		<path fill="#FFFFFF" d="M1111.102,1111.413c-0.552-0.01-1.103-0.02-1.653-0.028c-0.271,1.385-0.542,2.769-0.813,4.15
			c-2.79,16.896-5.581,33.746-8.374,50.552c6.807,0.229,13.611,0.468,20.416,0.719c-2.913-17.122-5.823-34.19-8.732-51.211
			C1111.662,1114.2,1111.382,1112.807,1111.102,1111.413z"/>
		<path fill="#FFFFFF" d="M802.338,1083.752c-10.475,0.032-9.946,11.548-9.946,11.547c-0.06,30.77-0.118,61.538-0.178,92.307
			c0,0.002-0.575,11.521,9.922,11.299c10.498-0.213,9.962-11.668,9.962-11.672c0.049-30.678,0.098-61.354,0.146-92.033
			C812.243,1095.198,812.813,1083.72,802.338,1083.752z"/>
		<path fill="#FFFFFF" d="M429.502,1118.053c-0.551,0.021-1.102,0.04-1.652,0.062c-0.28,1.585-0.561,3.17-0.842,4.757
			c-2.907,19.357-5.813,38.822-8.715,58.396c6.786-0.53,13.573-1.051,20.361-1.559c-2.779-18.887-5.561-37.875-8.343-56.967
			C430.042,1121.179,429.772,1119.616,429.502,1118.053z"/>
		<path fill="#FFFFFF" d="M240.116,1012.156v308.519c217.626-34.22,439.606-51.566,659.884-51.566
			c220.276,0,442.257,17.348,659.884,51.566v-308.519H240.116z M362.095,1102.744c-0.018,8.753-0.036,17.506-0.054,26.259
			c-9.264,0.44-18.527,0.892-27.789,1.354c0.013-8.929,0.025-17.856,0.038-26.785c0-0.004,1.122-14.327-11.269-14.091
			c-10.465,0.196-10.477,14.771-10.477,14.769c-0.033,38.893-0.066,77.783-0.099,116.675c0,0-0.014,14.563,10.412,13.214
			c12.346-1.578,11.271-15.728,11.27-15.735c0.013-8.928,0.025-17.855,0.038-26.784c9.248-0.874,18.499-1.727,27.751-2.558
			c-0.018,8.753-0.036,17.505-0.054,26.258c0.006,0.063,0.171,40.983-39.584,46.977c-39.735,6.188-39.452-37.735-39.458-37.768
			c0-39.771,0-79.54,0-119.31c0,0.016-0.284-44.03,39.679-43.813C362.461,1061.602,362.094,1102.729,362.095,1102.744z
			 M448.058,1243.802c-1.791-12.064-3.582-24.172-5.373-36.319c-9.537,0.877-19.071,1.779-28.604,2.713
			c-1.871,12.724-3.741,25.495-5.61,38.313c-9.617,1.192-19.23,2.421-28.842,3.685c10.313-64.246,20.663-127.132,31.041-188.773
			c12.124-0.017,24.247-0.032,36.371-0.047c9.984,60.194,19.95,119.239,29.907,177.253
			C467.314,1241.646,457.684,1242.707,448.058,1243.802z M529.438,1166.564c-0.096,22.952-0.19,45.905-0.286,68.857
			c-9.917,0.922-19.832,1.881-29.744,2.877c0.232-58.33,0.466-116.661,0.699-174.991c0,0,28.381-0.029,29.759-0.03
			c25.9,0.049,52.304,11.716,52.144,50.142C581.848,1151.84,555.334,1165.021,529.438,1166.564z M634.28,1227.066
			c-9.935,0.655-19.865,1.351-29.795,2.082c0.228-55.313,0.455-110.626,0.682-165.939c9.919-0.008,19.839-0.015,29.759-0.021
			C634.711,1117.813,634.496,1172.439,634.28,1227.066z M742.156,1087.032c-9.372,0.059-18.744,0.122-28.116,0.19
			c-0.142,45.134-0.284,90.268-0.425,135.399c-9.942,0.457-19.883,0.951-29.822,1.482c0.159-45.548,0.319-91.097,0.479-136.646
			c-9.372,0.081-18.743,0.167-28.114,0.258c0.03-8.182,0.062-16.363,0.093-24.547c28.657-0.019,57.314-0.034,85.972-0.046
			C742.2,1071.095,742.178,1079.063,742.156,1087.032z M842.02,1095.088c-0.03,30.578-0.063,61.156-0.094,91.734
			c0,0.05,0.245,33.54-39.83,34.43c-40.071,1.083-39.705-32.892-39.706-32.938c0.075-30.941,0.15-61.885,0.226-92.825
			c0,0.002-0.189-34.132,39.762-34.087C842.326,1061.425,842.021,1095.086,842.02,1095.088z M868.146,1218.547
			c0.026-51.816,0.054-103.635,0.081-155.452c9.921-0.001,19.841-0.001,29.761-0.001c0.002,44.741,0.005,89.482,0.007,134.225
			c13.169,0.008,26.338,0.072,39.506,0.194c0.006,7.057,0.012,14.112,0.018,21.168
			C914.395,1218.434,891.27,1218.389,868.146,1218.547z M1016.342,1128.134c9.195,0.119,18.392,0.251,27.585,0.396
			c0.021,7.961,0.043,15.922,0.064,23.882c-9.198-0.197-18.397-0.377-27.597-0.537c0.052,22.813,0.104,45.628,0.153,68.441
			c-9.946-0.307-19.894-0.573-29.842-0.804c-0.09-52.137-0.181-104.271-0.271-156.409c0,0.002,3.031-0.003,70.816,0.025
			c0.022,7.987,0.046,15.975,0.069,23.961c-13.69-0.09-27.383-0.169-41.073-0.235
			C1016.28,1100.614,1016.313,1114.374,1016.342,1128.134z M1130.549,1225.462c-1.881-11.149-3.762-22.276-5.642-33.38
			c-9.566-0.444-19.134-0.861-28.701-1.25c-1.803,10.838-3.606,21.658-5.411,32.461c-9.664-0.479-19.33-0.921-28.997-1.328
			c10.063-52.514,20.104-105.414,30.119-158.818c12.124,0.008,24.249,0.015,36.373,0.021
			c10.396,54.072,20.812,108.742,31.236,164.128C1149.869,1226.648,1140.21,1226.038,1130.549,1225.462z M1235.251,1233.098
			c-5.245-24.321-10.489-48.448-15.733-72.394c-2.665-0.128-5.328-0.254-7.994-0.379c0.1,23.605,0.197,47.214,0.297,70.819
			c-9.927-0.797-19.854-1.556-29.783-2.277c-0.227-55.221-0.452-110.44-0.678-165.661c9.919,0.008,19.839,0.017,29.759,0.024
			c35.27-0.069,50.771,17.298,50.906,49.735c0.069,17.124-5.102,32.394-16.371,38.355c6.453,27.865,12.905,56.011,19.355,84.456
			C1255.092,1234.847,1245.173,1233.953,1235.251,1233.098z M1372.354,1247.337c-0.119-38.538-0.238-77.075-0.357-115.613
			c-0.008-2.586-0.016-5.172-0.024-7.758c-0.55-0.021-1.101-0.045-1.65-0.067c-0.359,2.568-0.72,5.136-1.077,7.699
			c-6.211,38.181-12.413,75.892-18.608,113.161c-4.217-0.489-8.434-0.971-12.651-1.444c-6.461-38.418-12.93-76.375-19.404-113.903
			c-0.376-2.517-0.753-5.029-1.129-7.542c-0.552-0.021-1.103-0.04-1.652-0.061c0.009,2.497,0.02,4.993,0.028,7.49
			c0.141,37.209,0.281,74.418,0.423,111.627c-9.173-0.982-18.35-1.932-27.527-2.85c-0.232-58.257-0.467-116.515-0.7-174.771
			c12.124,0.013,24.248,0.026,36.371,0.041c5.979,27.212,11.954,54.714,17.924,82.523c0.472,3.217,0.94,6.436,1.411,9.657
			c0.184,0.011,0.366,0.021,0.551,0.031c0.447-3.169,0.896-6.34,1.344-9.515c5.776-27.246,11.56-54.79,17.348-82.65
			c12.123,0.017,24.246,0.031,36.37,0.048c0.164,62.443,0.328,124.888,0.492,187.329
			C1390.673,1249.596,1381.515,1248.45,1372.354,1247.337z M1479.777,1152.883c13.763,21.119,27.76,42.657,27.758,64.48
			c-0.007,27.117-8.759,49.656-41.103,44.688c-38.11-5.719-43.132-33.313-43.188-61.543c9.707,0.08,19.412,0.17,29.115,0.268
			c0.022,16.126,1.698,33.219,14.044,34.825c8.777,1.146,12.062-7.858,12.052-20.272c-0.01-13.243-12.651-30.457-23.946-47.706
			c-14.045-20.982-27.297-41.049-27.34-61.534c-0.045-20.706,10.65-44.016,38.759-44.683c35.828-1.005,41.61,31.07,41.607,53.729
			c-9.72,0.521-19.44,1.03-29.162,1.53c-0.01-13.219-1.95-28.641-11.863-28.807c-7.711,0.132-10.178,8.035-10.162,19.169
			C1456.367,1120.27,1468.221,1135.609,1479.777,1152.883z"/>
	</g>
</g>
</svg>
